# This file uses centimeters as units for non-parametric coordinates.

mtllib Portal.mtl
g default
v -0.134884 -7.113263 -1.051700
v -0.134884 -6.629850 -2.000453
v -0.134884 -5.876915 -2.753387
v -0.134884 -4.928162 -3.236801
v -0.134884 -3.876462 -3.403373
v -0.134885 -2.824762 -3.236800
v -0.134885 -1.876010 -2.753386
v -0.134884 -1.123076 -2.000452
v -0.134884 -0.639663 -1.051700
v -0.134884 -0.473090 0.000000
v -0.134884 -0.639663 1.051700
v -0.134884 -1.123076 2.000452
v -0.134884 -1.876010 2.753386
v -0.134884 -2.824762 3.236799
v -0.134884 -3.876462 3.403372
v -0.134884 -4.928162 3.236799
v -0.134884 -5.876914 2.753385
v -0.134884 -6.629848 2.000452
v -0.134884 -7.113261 1.051700
v -0.134884 -7.279834 0.000000
v 0.134884 -7.113263 -1.051700
v 0.134884 -6.629850 -2.000453
v 0.134884 -5.876915 -2.753387
v 0.134884 -4.928162 -3.236801
v 0.134884 -3.876462 -3.403373
v 0.134885 -2.824762 -3.236800
v 0.134885 -1.876010 -2.753387
v 0.134884 -1.123076 -2.000452
v 0.134884 -0.639663 -1.051700
v 0.134884 -0.473090 0.000000
v 0.134884 -0.639663 1.051700
v 0.134884 -1.123076 2.000452
v 0.134884 -1.876010 2.753386
v 0.134884 -2.824762 3.236799
v 0.134884 -3.876462 3.403372
v 0.134884 -4.928162 3.236799
v 0.134884 -5.876914 2.753385
v 0.134884 -6.629848 2.000452
v 0.134884 -7.113261 1.051700
v 0.134884 -7.279834 0.000000
v -0.134884 -6.824390 -0.957840
v -0.134884 -6.384119 -1.821919
v -0.134884 -5.698382 -2.507657
v -0.134884 -4.834302 -2.947927
v -0.134884 -3.876462 -3.099634
v -0.134884 -2.918623 -2.947927
v -0.134885 -2.054544 -2.507656
v -0.134885 -1.368806 -1.821918
v -0.134884 -0.928536 -0.957839
v -0.134884 -0.776829 0.000000
v -0.134884 -0.928536 0.957839
v -0.134884 -1.368806 1.821918
v -0.134884 -2.054544 2.507656
v -0.134884 -2.918623 2.947926
v -0.134884 -3.876462 3.099633
v -0.134884 -4.834301 2.947926
v -0.134884 -5.698380 2.507655
v -0.134884 -6.384117 1.821918
v -0.134884 -6.824388 0.957839
v -0.134884 -6.976095 -0.000000
v 0.134884 -6.824390 -0.957840
v 0.134884 -6.384119 -1.821919
v 0.134884 -5.698382 -2.507657
v 0.134884 -4.834302 -2.947927
v 0.134884 -3.876462 -3.099634
v 0.134884 -2.918623 -2.947927
v 0.134884 -2.054543 -2.507656
v 0.134885 -1.368806 -1.821919
v 0.134885 -0.928536 -0.957839
v 0.134884 -0.776829 0.000000
v 0.134884 -0.928536 0.957839
v 0.134884 -1.368806 1.821918
v 0.134884 -2.054544 2.507656
v 0.134884 -2.918623 2.947926
v 0.134884 -3.876462 3.099633
v 0.134884 -4.834301 2.947926
v 0.134884 -5.698380 2.507655
v 0.134884 -6.384117 1.821918
v 0.134884 -6.824388 0.957839
v 0.134884 -6.976095 -0.000000
v -0.134884 -6.491698 -2.011326
v -0.134884 -5.823355 -2.679668
v -0.134884 -6.393405 -1.939912
v -0.134884 -5.751942 -2.581376
v -0.134884 -4.900004 -3.150139
v -0.134884 -4.862460 -3.034589
v -0.134884 -3.966462 -3.297997
v -0.134884 -3.966462 -3.176501
v -0.134884 -2.771730 -3.108770
v -0.134884 -1.929570 -2.679668
v -0.134884 -2.809274 -2.993221
v -0.134884 -2.000984 -2.581375
v -0.134884 -1.196794 -1.946892
v -0.134884 -1.295087 -1.875479
v -0.134884 -0.767693 -1.104732
v -0.134884 -0.883242 -1.067188
v -0.134884 -0.578466 0.090000
v -0.134884 -0.726324 1.023542
v -0.134884 -0.699962 0.090000
v -0.134884 -0.841874 0.985997
v -0.134884 -1.196795 1.946892
v -0.134884 -1.295088 1.875478
v -0.134884 -1.865137 2.615234
v -0.134884 -1.936551 2.516942
v -0.134884 -2.942920 3.164392
v -0.134884 -3.876462 3.312250
v -0.134884 -2.980465 3.048842
v -0.134884 -3.876462 3.190755
v -0.134884 -4.900004 3.150137
v -0.134884 -4.862459 3.034588
v -0.134884 -5.742164 2.721035
v -0.134884 -5.670750 2.622743
v -0.134884 -6.597497 1.865702
v -0.134884 -7.026599 1.023542
v -0.134884 -6.499205 1.794288
v -0.134884 -6.911050 0.985997
v -0.134884 -7.188712 -0.000000
v -0.134884 -7.067216 -0.000000
v -0.134884 -7.040856 -0.933542
v -0.134884 -6.925306 -0.895998
v -0.064884 -6.491698 -2.011326
v -0.064884 -5.823355 -2.679668
v -0.064884 -6.393405 -1.939912
v -0.064884 -5.751942 -2.581376
v -0.064884 -4.900004 -3.150139
v -0.064884 -4.862460 -3.034589
v -0.064884 -3.966462 -3.297997
v -0.064884 -3.966462 -3.176501
v -0.064884 -2.771730 -3.108770
v -0.064884 -1.929570 -2.679668
v -0.064884 -2.809274 -2.993221
v -0.064884 -2.000984 -2.581375
v -0.064884 -1.196794 -1.946892
v -0.064884 -1.295087 -1.875479
v -0.064884 -0.767693 -1.104732
v -0.064884 -0.883242 -1.067188
v -0.064884 -0.578466 0.090000
v -0.064884 -0.726324 1.023542
v -0.064884 -0.699962 0.090000
v -0.064884 -0.841874 0.985997
v -0.064884 -1.196795 1.946892
v -0.064884 -1.295088 1.875478
v -0.064884 -1.865137 2.615234
v -0.064884 -1.936551 2.516942
v -0.064884 -2.942920 3.164392
v -0.064884 -3.876462 3.312250
v -0.064884 -2.980465 3.048842
v -0.064884 -3.876462 3.190755
v -0.064884 -4.900004 3.150137
v -0.064884 -4.862459 3.034588
v -0.064884 -5.742164 2.721035
v -0.064884 -5.670750 2.622743
v -0.064884 -6.597497 1.865702
v -0.064884 -7.026599 1.023542
v -0.064884 -6.499205 1.794288
v -0.064884 -6.911050 0.985997
v -0.064884 -7.188712 -0.000000
v -0.064884 -7.067216 -0.000000
v -0.064884 -7.040856 -0.933542
v -0.064884 -6.925306 -0.895998
vt 0.545557 0.118500
vt 0.564512 0.117638
vt 0.583467 0.116776
vt 0.602422 0.115914
vt 0.621377 0.115052
vt 0.640332 0.114190
vt 0.659287 0.113328
vt 0.678242 0.112466
vt 0.697197 0.111604
vt 0.716151 0.110742
vt 0.735106 0.109880
vt 0.754061 0.109018
vt 0.773016 0.108156
vt 0.791971 0.107294
vt 0.810926 0.106432
vt 0.829881 0.105570
vt 0.848836 0.104708
vt 0.867791 0.103846
vt 0.886746 0.102984
vt 0.905700 0.102122
vt 0.924655 0.101260
vt 0.551068 0.239668
vt 0.570023 0.238806
vt 0.588978 0.237944
vt 0.607932 0.237082
vt 0.626887 0.236220
vt 0.645842 0.235358
vt 0.664797 0.234495
vt 0.683752 0.233633
vt 0.702707 0.232772
vt 0.721662 0.231910
vt 0.740617 0.231048
vt 0.759572 0.230186
vt 0.778526 0.229324
vt 0.797481 0.228462
vt 0.816436 0.227600
vt 0.835391 0.226738
vt 0.854346 0.225876
vt 0.873301 0.225014
vt 0.892256 0.224152
vt 0.911211 0.223290
vt 0.930166 0.222428
vt 0.687451 0.344543
vt 0.710431 0.344543
vt 0.710401 0.525570
vt 0.687451 0.525571
vt 0.728669 0.344543
vt 0.728657 0.525569
vt 0.661977 0.344543
vt 0.661977 0.525571
vt 0.636502 0.344543
vt 0.636502 0.525571
vt 0.613522 0.344543
vt 0.613522 0.525571
vt 0.595285 0.344543
vt 0.595285 0.525571
vt 0.843815 0.344559
vt 0.866796 0.344563
vt 0.866771 0.525590
vt 0.843790 0.525587
vt 0.892270 0.344566
vt 0.892245 0.525594
vt 0.825578 0.344557
vt 0.825553 0.525585
vt 0.917744 0.344570
vt 0.917719 0.525598
vt 0.940725 0.344573
vt 0.940699 0.525601
vt 0.958962 0.344575
vt 0.958937 0.525603
vt 0.616353 0.838314
vt 0.621775 0.838314
vt 0.621775 0.917145
vt 0.616353 0.917145
vt 0.590429 0.830785
vt 0.595586 0.830785
vt 0.595586 0.909616
vt 0.590429 0.909616
vt 0.479801 0.888002
vt 0.517388 0.888002
vt 0.517388 0.966832
vt 0.479801 0.966832
vt 0.550094 0.888002
vt 0.550094 0.966832
vt 0.429550 0.892519
vt 0.465626 0.892519
vt 0.465626 0.971349
vt 0.429550 0.971349
vt 0.398044 0.892519
vt 0.398044 0.971349
vt 0.902917 0.772962
vt 0.902917 0.731296
vt 0.981748 0.731296
vt 0.981748 0.772962
vt 0.902917 0.814174
vt 0.981748 0.814174
vt 0.902917 0.844003
vt 0.981748 0.844003
vt 0.793945 0.975112
vt 0.793945 0.935121
vt 0.872776 0.935121
vt 0.872776 0.975112
vt 0.793945 0.895422
vt 0.872776 0.895422
vt 0.793945 0.866792
vt 0.872776 0.866792
vt 0.793945 0.862405
vt 0.872776 0.862405
vt 0.615324 0.738938
vt 0.620481 0.738938
vt 0.620481 0.817769
vt 0.615324 0.817769
vt 0.121579 0.884822
vt 0.121579 0.847234
vt 0.200410 0.847234
vt 0.200410 0.884822
vt 0.121579 0.930505
vt 0.200410 0.930505
vt 0.121579 0.972171
vt 0.200410 0.972171
vt 0.306471 0.958274
vt 0.306471 0.922198
vt 0.385302 0.922198
vt 0.385302 0.958274
vt 0.306471 0.878191
vt 0.385302 0.878191
vt 0.306471 0.961461
vt 0.385302 0.961461
vt 0.306471 0.838200
vt 0.385302 0.838200
vt 0.450910 0.131684
vt 0.476401 0.181713
vt 0.461168 0.186662
vt 0.437952 0.141099
vt 0.472583 0.187943
vt 0.466489 0.189923
vt 0.438442 0.134877
vt 0.443625 0.131111
vt 0.485184 0.237169
vt 0.480379 0.237169
vt 0.469168 0.237169
vt 0.473972 0.237169
vt 0.401793 0.104939
vt 0.404617 0.101052
vt 0.411207 0.091982
vt 0.408383 0.095869
vt 0.476400 0.292626
vt 0.471831 0.291141
vt 0.461168 0.287677
vt 0.465738 0.289162
vt 0.356229 0.081723
vt 0.357714 0.077154
vt 0.361179 0.066491
vt 0.359694 0.071061
vt 0.450910 0.342655
vt 0.449204 0.335549
vt 0.437952 0.333240
vt 0.444021 0.331783
vt 0.305722 0.073724
vt 0.310468 0.069671
vt 0.305722 0.057707
vt 0.310468 0.063264
vt 0.411207 0.382357
vt 0.401793 0.369400
vt 0.250265 0.066491
vt 0.255215 0.081723
vt 0.404102 0.380651
vt 0.400336 0.375468
vt 0.249449 0.079335
vt 0.247469 0.073242
vt 0.361179 0.407848
vt 0.359694 0.403278
vt 0.356229 0.392615
vt 0.357714 0.397185
vt 0.209651 0.104939
vt 0.206827 0.101052
vt 0.200237 0.091982
vt 0.203061 0.095869
vt 0.305722 0.416631
vt 0.305722 0.411827
vt 0.305722 0.400615
vt 0.305722 0.405420
vt 0.173492 0.141099
vt 0.169604 0.138274
vt 0.160534 0.131684
vt 0.164421 0.134509
vt 0.250265 0.407848
vt 0.256496 0.404030
vt 0.255215 0.392615
vt 0.258476 0.397937
vt 0.150276 0.186662
vt 0.147888 0.180896
vt 0.135043 0.181713
vt 0.141795 0.178916
vt 0.200237 0.382357
vt 0.209651 0.369400
vt 0.126260 0.237169
vt 0.142276 0.237169
vt 0.199664 0.375072
vt 0.203429 0.369889
vt 0.138223 0.241915
vt 0.131817 0.241915
vt 0.160534 0.342655
vt 0.164421 0.339830
vt 0.173492 0.333240
vt 0.169605 0.336065
vt 0.150276 0.287677
vt 0.145706 0.289162
vt 0.135043 0.292626
vt 0.139613 0.291141
vt 0.601175 0.619591
vt 0.631004 0.589761
vt 0.634192 0.594148
vt 0.605562 0.622778
vt 0.580176 0.660802
vt 0.585334 0.662478
vt 0.573577 0.702468
vt 0.579000 0.702468
vt 0.713404 0.765619
vt 0.750992 0.746467
vt 0.752668 0.751624
vt 0.716592 0.770006
vt 0.680699 0.798324
vt 0.685086 0.801511
vt 0.661547 0.835912
vt 0.666704 0.837587
vt 0.644119 0.679609
vt 0.637520 0.637943
vt 0.642943 0.637943
vt 0.649276 0.677934
vt 0.665117 0.720821
vt 0.669504 0.717633
vt 0.694947 0.750650
vt 0.698134 0.746263
vt 0.711459 0.655976
vt 0.703663 0.705202
vt 0.697570 0.703222
vt 0.705053 0.655976
vt 0.702911 0.602004
vt 0.696818 0.603983
vt 0.680284 0.557596
vt 0.675101 0.561362
vt 0.758537 0.690390
vt 0.735910 0.734798
vt 0.730727 0.731032
vt 0.752444 0.688411
vt 0.767085 0.636418
vt 0.760679 0.636418
vt 0.759289 0.587192
vt 0.753196 0.589172
vt 0.546830 0.344543
vt 0.572304 0.344543
vt 0.572304 0.525571
vt 0.546830 0.525571
vt 0.521356 0.344543
vt 0.521356 0.525571
vt 0.498375 0.344543
vt 0.498375 0.525571
vt 0.802597 0.344554
vt 0.802572 0.525581
vt 0.777123 0.344550
vt 0.777098 0.525578
vt 0.751649 0.344546
vt 0.751624 0.525574
vt 0.784276 0.797820
vt 0.784276 0.756609
vt 0.863107 0.756609
vt 0.863107 0.797820
vt 0.784276 0.726779
vt 0.863107 0.726779
vt 0.784276 0.839486
vt 0.863107 0.839486
vt 0.981522 0.892944
vt 0.981522 0.932644
vt 0.902691 0.932644
vt 0.902691 0.892944
vt 0.981522 0.972634
vt 0.902691 0.972634
vt 0.981522 0.864314
vt 0.902691 0.864314
vt 0.981522 0.859927
vt 0.902691 0.859927
vt 0.454675 0.793143
vt 0.492262 0.793143
vt 0.492262 0.871974
vt 0.454675 0.871974
vt 0.437730 0.879502
vt 0.401654 0.879502
vt 0.401654 0.800671
vt 0.437730 0.800671
vt 0.648871 0.825297
vt 0.643714 0.825297
vt 0.643714 0.746467
vt 0.648871 0.746467
vt 0.594002 0.735927
vt 0.599425 0.735927
vt 0.599425 0.814757
vt 0.594002 0.814757
vt 0.101941 0.930505
vt 0.101941 0.972172
vt 0.023111 0.972172
vt 0.023111 0.930505
vt 0.101941 0.884822
vt 0.023111 0.884822
vt 0.101941 0.847235
vt 0.023111 0.847235
vt 0.212519 0.961461
vt 0.212519 0.921471
vt 0.291350 0.921471
vt 0.291350 0.961461
vt 0.212519 0.877464
vt 0.291350 0.877464
vt 0.212519 0.841388
vt 0.291350 0.841388
vt 0.212519 0.838200
vt 0.291350 0.838200
vt 0.573406 0.740458
vt 0.578564 0.740458
vt 0.578564 0.819289
vt 0.573406 0.819289
vn 0.000000 -0.951057 -0.309016
vn 0.000000 -0.809017 -0.587785
vn 0.000000 -0.809017 -0.587785
vn 0.000000 -0.951057 -0.309016
vn 0.000000 -0.587785 -0.809017
vn 0.000000 -0.587785 -0.809017
vn 0.000000 -0.309017 -0.951057
vn 0.000000 -0.309017 -0.951057
vn -0.000000 0.000000 -1.000000
vn -0.000000 0.000000 -1.000000
vn -0.000001 0.309017 -0.951056
vn -0.000001 0.309017 -0.951056
vn -0.000001 0.587785 -0.809017
vn -0.000001 0.587785 -0.809017
vn -0.000000 0.809017 -0.587785
vn -0.000000 0.809017 -0.587785
vn 0.000000 0.951057 -0.309017
vn 0.000000 0.951057 -0.309017
vn 0.000000 1.000000 0.000000
vn 0.000000 1.000000 0.000000
vn 0.000000 0.951057 0.309017
vn 0.000000 0.951057 0.309017
vn 0.000000 0.809017 0.587785
vn 0.000000 0.809017 0.587785
vn 0.000000 0.587785 0.809017
vn 0.000000 0.587785 0.809017
vn 0.000000 0.309017 0.951057
vn 0.000000 0.309017 0.951057
vn 0.000000 -0.000000 1.000000
vn 0.000000 -0.000000 1.000000
vn 0.000000 -0.309017 0.951056
vn 0.000000 -0.309017 0.951056
vn 0.000000 -0.587785 0.809017
vn 0.000000 -0.587785 0.809017
vn 0.000000 -0.809017 0.587785
vn 0.000000 -0.809017 0.587785
vn 0.000000 -0.951057 0.309017
vn 0.000000 -0.951057 0.309017
vn 0.000000 -1.000000 0.000001
vn 0.000000 -1.000000 0.000001
vn -1.000000 -0.000000 0.000000
vn -1.000000 -0.000000 0.000000
vn -1.000000 -0.000000 0.000000
vn -1.000000 -0.000000 0.000000
vn -1.000000 -0.000000 0.000000
vn -1.000000 -0.000000 0.000000
vn -1.000000 -0.000000 0.000000
vn -1.000000 -0.000000 0.000000
vn -1.000000 -0.000000 0.000000
vn -1.000000 -0.000000 0.000000
vn -1.000000 -0.000000 0.000000
vn -1.000000 -0.000000 0.000000
vn -1.000000 -0.000000 0.000000
vn -1.000000 -0.000000 0.000000
vn -1.000000 -0.000000 0.000000
vn -1.000000 -0.000000 0.000000
vn -1.000000 0.000000 -0.000000
vn -1.000000 0.000000 -0.000000
vn -1.000000 0.000000 -0.000000
vn -1.000000 0.000000 -0.000000
vn -1.000000 0.000000 -0.000000
vn -1.000000 0.000000 -0.000000
vn -1.000000 -0.000000 0.000000
vn -1.000000 -0.000000 0.000000
vn -1.000000 -0.000000 0.000000
vn -1.000000 -0.000000 0.000000
vn -1.000000 0.000000 -0.000000
vn -1.000000 -0.000000 0.000000
vn -1.000000 -0.000000 0.000000
vn -1.000000 -0.000000 0.000000
vn -1.000000 -0.000000 0.000000
vn -1.000000 -0.000000 0.000000
vn -1.000000 0.000000 -0.000000
vn -1.000000 0.000000 -0.000000
vn -1.000000 0.000000 -0.000000
vn -1.000000 0.000000 -0.000000
vn -1.000000 -0.000000 0.000000
vn -1.000000 -0.000000 0.000000
vn -1.000000 -0.000000 0.000000
vn -1.000000 -0.000000 0.000000
vn -1.000000 0.000000 -0.000000
vn -1.000000 -0.000000 0.000000
vn -1.000000 -0.000000 0.000000
vn -1.000000 0.000000 -0.000000
vn -1.000000 -0.000000 0.000000
vn -1.000000 -0.000000 0.000000
vn -1.000000 -0.000000 0.000000
vn -1.000000 -0.000000 0.000000
vn -1.000000 -0.000000 0.000000
vn -1.000000 -0.000000 0.000000
vn -1.000000 -0.000000 0.000000
vn -1.000000 -0.000000 0.000000
vn -1.000000 -0.000000 0.000000
vn -1.000000 -0.000000 0.000000
vn -1.000000 -0.000000 0.000000
vn -1.000000 -0.000000 0.000000
vn -1.000000 -0.000000 0.000000
vn -1.000000 -0.000000 0.000000
vn -1.000000 -0.000000 0.000000
vn -1.000000 -0.000000 0.000000
vn 0.000001 -0.707107 0.707107
vn 0.000001 -0.707107 0.707107
vn 0.000001 -0.707107 0.707107
vn 0.000001 -0.707107 0.707107
vn 0.000001 -0.891007 0.453990
vn 0.000001 -0.891007 0.453990
vn 0.000001 -0.891007 0.453990
vn 0.000001 -0.891007 0.453990
vn 0.000000 -0.987688 -0.156434
vn 0.000000 -0.987688 -0.156434
vn 0.000000 -0.987688 -0.156434
vn 0.000000 -0.987688 -0.156434
vn 0.000000 -0.987688 0.156434
vn 0.000000 -0.987688 0.156434
vn 0.000000 -0.987688 0.156434
vn 0.000000 -0.987688 0.156434
vn 0.000000 -0.707107 -0.707107
vn 0.000000 -0.707107 -0.707107
vn 0.000000 -0.707107 -0.707107
vn 0.000000 -0.707107 -0.707107
vn 0.000000 -0.891006 -0.453991
vn 0.000000 -0.891006 -0.453991
vn 0.000000 -0.891006 -0.453991
vn 0.000000 -0.891006 -0.453991
vn 0.000000 -0.156435 -0.987688
vn 0.000000 -0.156435 -0.987688
vn 0.000000 -0.156435 -0.987688
vn 0.000000 -0.156435 -0.987688
vn 0.000000 -0.453990 -0.891007
vn 0.000000 -0.453990 -0.891007
vn 0.000000 -0.453990 -0.891007
vn 0.000000 -0.453990 -0.891007
vn 0.000000 0.707107 -0.707107
vn 0.000000 0.707107 -0.707107
vn 0.000000 0.707107 -0.707107
vn 0.000000 0.707107 -0.707107
vn 0.000000 0.453991 -0.891007
vn 0.000000 0.453991 -0.891007
vn 0.000000 0.453991 -0.891007
vn 0.000000 0.453991 -0.891007
vn 0.000000 0.156435 -0.987688
vn 0.000000 0.156435 -0.987688
vn 0.000000 0.156435 -0.987688
vn 0.000000 0.156435 -0.987688
vn 0.000000 0.891006 0.453991
vn 0.000000 0.891006 0.453991
vn 0.000000 0.891006 0.453991
vn 0.000000 0.891006 0.453991
vn 0.000000 0.987689 0.156432
vn 0.000000 0.987689 0.156432
vn 0.000000 0.987689 0.156432
vn 0.000000 0.987689 0.156432
vn 0.000000 0.987688 -0.156434
vn 0.000000 0.987688 -0.156434
vn 0.000000 0.987688 -0.156434
vn 0.000000 0.987688 -0.156434
vn 0.000000 0.891006 -0.453991
vn 0.000000 0.891006 -0.453991
vn 0.000000 0.891006 -0.453991
vn 0.000000 0.891006 -0.453991
vn 0.000000 0.453990 0.891007
vn 0.000000 0.453990 0.891007
vn 0.000000 0.453990 0.891007
vn 0.000000 0.453990 0.891007
vn 0.000000 0.707107 0.707107
vn 0.000000 0.707107 0.707107
vn 0.000000 0.707107 0.707107
vn 0.000000 0.707107 0.707107
vn 0.000001 -0.453991 0.891006
vn 0.000001 -0.453991 0.891006
vn 0.000001 -0.453991 0.891006
vn 0.000001 -0.453991 0.891006
vn 0.000000 -0.156435 0.987688
vn 0.000000 -0.156435 0.987688
vn 0.000000 -0.156435 0.987688
vn 0.000000 -0.156435 0.987688
vn 0.000000 0.156434 0.987688
vn 0.000000 0.156434 0.987688
vn 0.000000 0.156434 0.987688
vn 0.000000 0.156434 0.987688
vn -1.000000 -0.000000 0.000000
vn -1.000000 -0.000000 0.000000
vn -1.000000 -0.000000 0.000000
vn -1.000000 -0.000000 0.000000
vn -1.000000 -0.000000 0.000000
vn -1.000000 -0.000000 0.000000
vn -1.000000 -0.000000 0.000000
vn -1.000000 -0.000000 0.000000
vn -1.000000 -0.000000 0.000000
vn -1.000000 -0.000000 0.000000
vn -1.000000 -0.000000 0.000000
vn -1.000000 -0.000000 0.000000
vn -1.000000 -0.000001 0.000001
vn -1.000000 -0.000000 0.000001
vn -1.000000 -0.000001 0.000001
vn -1.000000 0.000000 -0.000000
vn -1.000000 0.000001 -0.000001
vn -1.000000 0.000001 -0.000001
vn -1.000000 -0.000000 0.000000
vn -1.000000 -0.000000 0.000000
vn -1.000000 0.000001 -0.000001
vn -1.000000 0.000001 -0.000001
vn -1.000000 -0.000000 0.000000
vn -1.000000 0.000001 -0.000000
vn -1.000000 -0.000000 0.000000
vn -1.000000 -0.000000 0.000000
vn -1.000000 -0.000000 0.000000
vn -1.000000 -0.000000 0.000000
vn -1.000000 -0.000000 0.000000
vn -1.000000 -0.000000 0.000000
vn -1.000000 -0.000000 0.000000
vn -1.000000 -0.000000 0.000000
vn -1.000000 -0.000000 0.000000
vn -1.000000 -0.000000 0.000000
vn -1.000000 -0.000000 0.000000
vn -1.000000 -0.000000 0.000000
vn -1.000000 -0.000000 0.000000
vn -1.000000 -0.000000 0.000000
vn -1.000000 -0.000000 0.000000
vn -1.000000 -0.000000 0.000000
vn -1.000000 -0.000000 0.000000
vn -1.000000 -0.000000 0.000000
vn -1.000000 -0.000000 0.000000
vn -1.000000 -0.000000 0.000000
vn -1.000000 -0.000000 0.000000
vn -1.000000 -0.000000 0.000000
vn -1.000000 -0.000000 0.000000
vn -1.000000 -0.000000 0.000000
vn -1.000000 -0.000000 0.000000
vn -1.000000 -0.000000 0.000000
vn -1.000000 -0.000000 0.000000
vn -1.000000 -0.000000 0.000000
vn -1.000000 -0.000000 0.000000
vn -1.000000 -0.000000 0.000000
vn -1.000000 -0.000000 0.000000
vn -1.000000 -0.000000 0.000000
vn -1.000000 -0.000000 0.000000
vn -1.000000 -0.000000 0.000000
vn -1.000000 -0.000000 0.000000
vn -1.000000 -0.000000 0.000000
vn 0.000000 0.581877 0.813277
vn 0.000000 0.707107 0.707107
vn 0.000000 0.707107 0.707107
vn 0.000000 0.581877 0.813277
vn 0.000000 0.587785 -0.809017
vn 0.000000 0.587785 -0.809017
vn 0.000000 0.587785 -0.809017
vn 0.000000 0.587785 -0.809017
vn 0.000000 -0.707107 -0.707107
vn 0.000000 -0.581641 -0.813446
vn 0.000000 -0.581641 -0.813446
vn 0.000000 -0.707107 -0.707107
vn 0.000000 0.315936 0.948781
vn 0.000000 0.315936 0.948781
vn 0.000000 -0.316211 -0.948689
vn 0.000000 -0.316211 -0.948689
vn 0.000000 0.156434 0.987688
vn 0.000000 0.156434 0.987688
vn 0.000000 -0.156435 -0.987688
vn 0.000000 -0.156435 -0.987688
vn 0.000000 -1.000000 0.000000
vn 0.000000 -1.000000 0.000000
vn 0.000000 -1.000000 0.000000
vn 0.000000 -1.000000 0.000000
vn 0.000000 -0.593662 0.804714
vn 0.000000 -0.453991 0.891007
vn 0.000000 -0.453991 0.891007
vn 0.000000 -0.593662 0.804714
vn 0.000000 0.951056 0.309018
vn 0.000000 0.951056 0.309018
vn 0.000000 0.951056 0.309018
vn 0.000000 0.951056 0.309018
vn 0.000000 0.453991 -0.891006
vn 0.000000 0.593896 -0.804542
vn 0.000000 0.593896 -0.804542
vn 0.000000 0.453991 -0.891006
vn 0.000000 -0.804715 0.593662
vn 0.000000 -0.804715 0.593662
vn 0.000000 0.804542 -0.593896
vn 0.000000 0.804542 -0.593896
vn 0.000000 -0.891007 0.453990
vn 0.000000 -0.891007 0.453990
vn 0.000000 0.891007 -0.453990
vn 0.000000 0.891007 -0.453990
vn 0.000000 -0.309017 -0.951057
vn 0.000000 -0.309017 -0.951057
vn 0.000000 -0.309017 -0.951057
vn 0.000000 -0.309017 -0.951057
vn 0.000000 -0.948780 -0.315936
vn 0.000000 -0.987688 -0.156434
vn 0.000000 -0.987688 -0.156434
vn 0.000000 -0.948780 -0.315936
vn 0.000000 0.000000 1.000000
vn 0.000000 0.000000 1.000000
vn 0.000000 0.000000 1.000000
vn 0.000000 0.000000 1.000000
vn 0.000000 0.987688 0.156435
vn 0.000000 0.948689 0.316211
vn 0.000000 0.948689 0.316211
vn 0.000000 0.987688 0.156435
vn 0.000000 -0.813276 -0.581878
vn 0.000000 -0.813276 -0.581878
vn 0.000000 0.813446 0.581641
vn 0.000000 0.813446 0.581641
vn 0.000000 -0.707107 -0.707107
vn 0.000000 -0.707107 -0.707107
vn 0.000000 0.707107 0.707107
vn 0.000000 0.707107 0.707107
vn 0.000000 0.809017 -0.587785
vn 0.000000 0.809017 -0.587785
vn 0.000000 0.809017 -0.587785
vn 0.000000 0.809017 -0.587785
vn 0.000000 0.007283 -0.999973
vn 0.000000 -0.156435 -0.987688
vn 0.000000 -0.156435 -0.987688
vn 0.000000 0.007283 -0.999973
vn 0.000000 -0.951057 0.309016
vn 0.000000 -0.951057 0.309016
vn 0.000000 -0.951057 0.309016
vn 0.000000 -0.951057 0.309016
vn 0.000000 0.156435 0.987688
vn 0.000000 -0.007574 0.999971
vn 0.000000 -0.007574 0.999971
vn 0.000000 0.156435 0.987688
vn 0.000000 0.302082 -0.953282
vn 0.000000 0.302082 -0.953282
vn 0.000000 -0.301805 0.953370
vn 0.000000 -0.301805 0.953370
vn 0.000000 0.453991 -0.891006
vn 0.000000 0.453991 -0.891006
vn 0.000000 -0.453991 0.891007
vn 0.000000 -0.453991 0.891007
vn 0.000000 0.809016 0.587787
vn 0.000000 0.809016 0.587787
vn 0.000000 0.809016 0.587787
vn 0.000000 0.809016 0.587787
vn 0.000000 0.953282 -0.302082
vn 0.000000 0.891007 -0.453991
vn 0.000000 0.891007 -0.453991
vn 0.000000 0.953282 -0.302082
vn 0.000000 -0.587785 -0.809017
vn 0.000000 -0.587785 -0.809017
vn 0.000000 -0.587785 -0.809017
vn 0.000000 -0.587785 -0.809017
vn 0.000000 -0.891006 0.453991
vn 0.000000 -0.953370 0.301805
vn 0.000000 -0.953370 0.301805
vn 0.000000 -0.891006 0.453991
vn 0.000000 0.999973 -0.007284
vn 0.000000 0.999973 -0.007284
vn 0.000000 -0.999971 0.007575
vn 0.000000 -0.999971 0.007575
vn 0.000000 0.987689 0.156432
vn 0.000000 0.987689 0.156432
vn 0.000000 -0.987689 -0.156432
vn 0.000000 -0.987689 -0.156432
vn 0.000000 -0.309016 0.951057
vn 0.000000 -0.309016 0.951057
vn 0.000000 -0.309016 0.951057
vn 0.000000 -0.309016 0.951057
s 1
g Portal
usemtl initialShadingGroup
f 1/1/1 2/2/2 22/23/3 21/22/4
f 2/2/2 3/3/5 23/24/6 22/23/3
f 3/3/5 4/4/7 24/25/8 23/24/6
f 4/4/7 5/5/9 25/26/10 24/25/8
f 5/5/9 6/6/11 26/27/12 25/26/10
f 6/6/11 7/7/13 27/28/14 26/27/12
f 7/7/13 8/8/15 28/29/16 27/28/14
f 8/8/15 9/9/17 29/30/18 28/29/16
f 9/9/17 10/10/19 30/31/20 29/30/18
f 10/10/19 11/11/21 31/32/22 30/31/20
f 11/11/21 12/12/23 32/33/24 31/32/22
f 12/12/23 13/13/25 33/34/26 32/33/24
f 13/13/25 14/14/27 34/35/28 33/34/26
f 14/14/27 15/15/29 35/36/30 34/35/28
f 15/15/29 16/16/31 36/37/32 35/36/30
f 16/16/31 17/17/33 37/38/34 36/37/32
f 17/17/33 18/18/35 38/39/36 37/38/34
f 18/18/35 19/19/37 39/40/38 38/39/36
f 19/19/37 20/20/39 40/41/40 39/40/38
f 20/20/39 1/21/1 21/42/4 40/41/40
s 2
f 2/131/41 1/132/42 41/133/43 42/134/44
s 3
f 122/211/45 121/212/46 123/213/47 124/214/48
f 125/215/49 122/211/45 124/214/48 126/216/50
f 127/217/51 125/215/49 126/216/50 128/218/52
s 2
f 6/165/53 5/161/54 45/159/55 46/166/56
s 5
f 130/219/57 129/220/58 131/221/59 132/222/60
f 133/223/61 130/219/57 132/222/60 134/224/62
f 135/225/63 133/223/61 134/224/62 136/226/64
s 2
f 10/197/65 9/193/66 49/191/67 50/198/68
s 7
f 138/227/69 137/228/70 139/229/71 140/230/72
f 141/231/73 138/227/69 140/230/72 142/232/74
f 143/233/75 141/231/73 142/232/74 144/234/76
s 2
f 14/187/77 13/195/78 53/196/79 54/189/80
s 9
f 146/235/81 145/236/82 147/237/83 148/238/84
f 149/239/85 146/235/81 148/238/84 150/240/86
f 151/241/87 149/239/85 150/240/86 152/242/88
s 2
f 18/155/89 17/163/90 57/164/91 58/157/92
s 11
f 154/243/93 153/244/94 155/245/95 156/246/96
f 157/247/97 154/243/93 156/246/96 158/248/98
f 159/249/99 157/247/97 158/248/98 160/250/100
s off
f 48/44/101 47/47/102 67/48/103 68/45/104
f 49/43/105 48/44/106 68/45/107 69/46/108
f 51/51/109 50/49/110 70/50/111 71/52/112
f 50/49/113 49/43/114 69/46/115 70/50/116
f 53/55/117 52/53/118 72/54/119 73/56/120
f 52/53/121 51/51/122 71/52/123 72/54/124
f 55/251/125 54/252/126 74/253/127 75/254/128
f 54/252/129 53/55/130 73/56/131 74/253/132
f 58/67/133 57/69/134 77/70/135 78/68/136
f 57/257/137 56/255/138 76/256/139 77/258/140
f 56/255/141 55/251/142 75/254/143 76/256/144
f 42/57/145 41/58/146 61/59/147 62/60/148
f 41/58/149 60/61/150 80/62/151 61/59/152
f 60/61/153 59/65/154 79/66/155 80/62/156
f 59/65/157 58/67/158 78/68/159 79/66/160
f 44/259/161 43/63/162 63/64/163 64/260/164
f 43/63/165 42/57/166 62/60/167 63/64/168
f 47/47/169 46/263/170 66/264/171 67/48/172
f 46/263/173 45/261/174 65/262/175 66/264/176
f 45/261/177 44/259/178 64/260/179 65/262/180
s 2
f 3/145/181 2/131/41 81/138/182 82/146/183
f 2/131/41 42/134/44 83/137/184 81/138/182
f 42/134/44 43/143/185 84/144/186 83/137/184
f 4/153/187 3/145/181 82/146/183 85/154/188
f 43/143/185 44/151/189 86/152/190 84/144/186
f 5/161/54 4/153/187 85/154/188 87/162/191
f 44/151/189 45/159/55 88/160/192 86/152/190
f 45/159/55 5/161/54 87/162/191 88/160/192
f 7/177/193 6/165/53 89/170/194 90/178/195
f 6/165/53 46/166/56 91/169/196 89/170/194
f 46/166/56 47/175/197 92/176/198 91/169/196
f 8/185/199 7/177/193 90/178/195 93/186/200
f 47/175/197 48/183/201 94/184/202 92/176/198
f 9/193/66 8/185/199 93/186/200 95/194/203
f 48/183/201 49/191/67 96/192/204 94/184/202
f 49/191/67 9/193/66 95/194/203 96/192/204
f 11/209/205 10/197/65 97/202/206 98/210/207
f 10/197/65 50/198/68 99/201/208 97/202/206
f 50/198/68 51/207/209 100/208/210 99/201/208
f 12/203/211 11/209/205 98/210/207 101/204/212
f 51/207/209 52/205/213 102/206/214 100/208/210
f 13/195/78 12/203/211 101/204/212 103/199/215
f 52/205/213 53/196/79 104/200/216 102/206/214
f 53/196/79 13/195/78 103/199/215 104/200/216
f 15/179/217 14/187/77 105/188/218 106/180/219
f 14/187/77 54/189/80 107/190/220 105/188/218
f 54/189/80 55/181/221 108/182/222 107/190/220
f 16/171/223 15/179/217 106/180/219 109/172/224
f 55/181/221 56/173/225 110/174/226 108/182/222
f 17/163/90 16/171/223 109/172/224 111/167/227
f 56/173/225 57/164/91 112/168/228 110/174/226
f 57/164/91 17/163/90 111/167/227 112/168/228
f 19/147/229 18/155/89 113/156/230 114/148/231
f 18/155/89 58/157/92 115/158/232 113/156/230
f 58/157/92 59/149/233 116/150/234 115/158/232
f 20/139/235 19/147/229 114/148/231 117/140/236
f 59/149/233 60/141/237 118/142/238 116/150/234
f 1/132/42 20/139/235 117/140/236 119/135/239
f 60/141/237 41/133/43 120/136/240 118/142/238
f 41/133/43 1/132/42 119/135/239 120/136/240
s 12
f 82/266/241 81/269/242 121/270/243 122/267/244
s off
f 81/281/245 83/279/246 123/280/247 121/282/248
s 13
f 83/279/249 84/273/250 124/276/251 123/280/252
s 12
f 85/265/253 82/266/241 122/267/244 125/268/254
s 13
f 84/273/250 86/274/255 126/275/256 124/276/251
s 12
f 87/271/257 85/265/253 125/268/254 127/272/258
s 13
f 86/274/255 88/277/259 128/278/260 126/275/256
s off
f 88/71/261 87/72/262 127/73/263 128/74/264
s 14
f 90/283/265 89/284/266 129/285/267 130/286/268
s off
f 89/75/269 91/76/270 131/77/271 129/78/272
s 15
f 91/287/273 92/288/274 132/289/275 131/290/276
s 14
f 93/80/277 90/83/265 130/84/268 133/81/278
s 15
f 92/89/274 94/85/279 134/88/280 132/90/275
s 14
f 95/79/281 93/80/277 133/81/278 135/82/282
s 15
f 94/85/279 96/86/283 136/87/284 134/88/280
s off
f 96/291/285 95/292/286 135/293/287 136/294/288
s 16
f 98/91/289 97/92/290 137/93/291 138/94/292
s off
f 97/295/293 99/296/294 139/297/295 137/298/296
s 17
f 99/99/297 100/100/298 140/101/299 139/102/300
s 16
f 101/95/301 98/91/289 138/94/292 141/96/302
s 17
f 100/100/298 102/103/303 142/104/304 140/101/299
s 16
f 103/97/305 101/95/301 141/96/302 143/98/306
s 17
f 102/103/303 104/105/307 144/106/308 142/104/304
s off
f 104/105/309 103/107/310 143/108/311 144/106/312
s 18
f 106/299/313 105/300/314 145/301/315 146/302/316
s off
f 105/109/317 107/110/318 147/111/319 145/112/320
s 19
f 107/307/321 108/308/322 148/309/323 147/310/324
s 18
f 109/303/325 106/299/313 146/302/316 149/304/326
s 19
f 108/308/322 110/311/327 150/312/328 148/309/323
s 18
f 111/305/329 109/303/325 149/304/326 151/306/330
s 19
f 110/311/327 112/313/331 152/314/332 150/312/328
s off
f 112/313/333 111/315/334 151/316/335 152/314/336
s 20
f 114/113/337 113/114/338 153/115/339 154/116/340
s off
f 113/127/341 115/121/342 155/124/343 153/128/344
s 21
f 115/121/345 116/122/346 156/123/347 155/124/348
s 20
f 117/117/349 114/113/337 154/116/340 157/118/350
s 21
f 116/122/346 118/125/351 158/126/352 156/123/347
s 20
f 119/119/353 117/117/349 157/118/350 159/120/354
s 21
f 118/125/351 120/129/355 160/130/356 158/126/352
s off
f 120/317/357 119/318/358 159/319/359 160/320/360
